<?xml version="1.0" standalone="no"?>
<!DOCTYPE svg PUBLIC "-//W3C//DTD SVG 20010904//EN"
 "http://www.w3.org/TR/2001/REC-SVG-20010904/DTD/svg10.dtd">
<svg version="1.0" xmlns="http://www.w3.org/2000/svg"
 width="200.000000pt" height="200.000000pt" viewBox="0 0 200.000000 200.000000"
 preserveAspectRatio="xMidYMid meet">

<g transform="translate(0.000000,200.000000) scale(0.100000,-0.100000)"
fill="#000000" stroke="none">
<path d="M252 1427 c-138 -138 -252 -257 -252 -262 0 -6 225 -235 500 -510
l500 -500 500 500 c275 275 500 504 500 510 0 6 -114 124 -253 263 -199 199
-255 250 -265 240 -7 -7 -12 -17 -12 -24 0 -7 -18 -2 -47 12 -44 23 -56 24
-237 24 l-191 0 -121 -121 -122 -122 -119 122 c-66 66 -122 121 -124 121 -2 0
-118 -114 -257 -253z m1151 202 c61 -31 77 -115 33 -166 -23 -26 -30 -28 -111
-32 -73 -3 -86 -6 -83 -20 3 -13 20 -17 86 -21 76 -5 86 -7 108 -33 35 -41 33
-97 -5 -139 l-29 -33 -191 -3 -191 -3 0 230 0 231 181 0 c113 0 188 -4 202
-11z m-913 -109 l0 -90 -92 0 -93 0 90 90 c49 50 91 90 92 90 2 0 3 -40 3 -90z
m375 -20 l115 115 0 -218 0 -217 -227 2 -228 3 -3 215 -2 214 115 -114 116
-114 114 114z m794 -68 c-56 -6 -97 7 -123 39 -21 25 -26 41 -26 87 l0 57 90
-90 91 -90 -32 -3z m-1169 -147 l0 -105 -217 0 -218 0 105 105 105 105 112 0
113 0 0 -105z m1350 0 l105 -105 -218 0 -217 0 0 68 c0 68 12 100 50 129 9 7
48 12 95 13 l80 0 105 -105z m-1350 -350 c0 -118 -1 -215 -3 -215 -1 0 -99 97
-217 215 l-215 215 218 0 217 0 0 -215z m250 0 l-215 -215 -3 202 c-1 111 0
208 2 215 4 10 55 13 218 13 l213 0 -215 -215z m730 -15 l0 -230 -225 0 -225
0 0 230 0 230 225 0 225 0 0 -230z m470 227 c0 -1 -97 -99 -215 -217 l-215
-215 0 218 0 217 215 0 c118 0 215 -1 215 -3z m-960 -479 l0 -443 -220 220
c-121 121 -220 222 -220 226 0 9 422 439 431 439 5 0 9 -199 9 -442z m460 -21
c0 -1 -94 -97 -210 -212 l-210 -210 0 213 0 212 210 0 c116 0 210 -1 210 -3z"/>
</g>
</svg>
