<?xml version="1.0" standalone="no"?>
<!DOCTYPE svg PUBLIC "-//W3C//DTD SVG 20010904//EN"
 "http://www.w3.org/TR/2001/REC-SVG-20010904/DTD/svg10.dtd">
<svg version="1.0" xmlns="http://www.w3.org/2000/svg"
 width="400.000000pt" height="153.000000pt" viewBox="0 0 400.000000 153.000000"
 preserveAspectRatio="xMidYMid meet">

<g transform="translate(0.000000,153.000000) scale(0.100000,-0.100000)"
fill="#CE202F" stroke="none">
<path d="M5 1518 c-3 -7 -4 -350 -3 -763 l3 -750 460 0 c405 0 469 2 535 18
112 26 193 68 259 134 79 80 105 145 105 273 1 84 -3 102 -28 157 -18 40 -48
80 -82 113 -52 49 -141 100 -176 100 -32 0 -27 17 11 33 64 28 127 92 162 162
30 61 31 69 27 157 -8 189 -98 296 -294 350 -74 20 -107 21 -526 26 -369 3
-449 2 -453 -10z m721 -349 c75 -19 110 -90 80 -163 -24 -58 -74 -76 -218 -76
l-118 0 0 125 0 125 106 0 c58 0 125 -5 150 -11z m104 -595 c102 -41 89 -184
-18 -214 -20 -5 -106 -10 -189 -10 l-153 0 0 120 0 120 160 0 c124 0 169 -4
200 -16z"/>
<path d="M1540 765 l0 -765 230 0 230 0 2 405 3 405 320 -405 320 -405 208 0
207 0 0 765 0 765 -227 -2 -228 -3 -5 -377 -5 -376 -299 379 -298 379 -229 0
-229 0 0 -765z"/>
<path d="M3260 1298 l0 -232 227 224 c125 124 229 228 231 233 2 4 -100 7
-227 7 l-231 0 0 -232z"/>
<path d="M3487 1111 l-228 -226 1 -442 0 -443 235 0 235 0 0 670 c0 369 -3
669 -7 668 -5 -1 -111 -103 -236 -227z"/>
<path d="M3855 145 c-37 -36 -34 -86 7 -120 35 -30 79 -29 110 3 32 31 33 75
3 110 -34 41 -84 44 -120 7z m105 -5 c24 -24 26 -77 3 -102 -19 -21 -71 -24
-96 -5 -9 6 -20 26 -23 44 -12 63 71 108 116 63z"/>
<path d="M3887 134 c-4 -4 -6 -28 -6 -53 1 -25 4 -36 6 -23 5 27 19 28 35 2
17 -27 32 -26 17 1 -9 17 -8 23 2 30 11 6 11 13 3 26 -12 19 -45 29 -57 17z
m51 -26 c-3 -7 -13 -13 -23 -13 -10 0 -20 6 -22 13 -3 7 5 12 22 12 17 0 25
-5 23 -12z"/>
</g>
</svg>
